<svg xmlns="http://www.w3.org/2000/svg" xmlns:xlink="http://www.w3.org/1999/xlink" viewBox="0,0,256,256" width="500px" height="500px" fill-rule="nonzero"><g fill="#555555" fill-rule="nonzero" stroke="none" stroke-width="1" stroke-linecap="butt" stroke-linejoin="miter" stroke-miterlimit="10" stroke-dasharray="" stroke-dashoffset="0" font-family="none" font-weight="none" font-size="none" text-anchor="none" style="mix-blend-mode: normal"><g transform="scale(5.12,5.12)"><path d="M24.8125,6.53125c-3.92187,4.47656 -5.97266,11.89063 -5.71875,19.21875h11.40625c0.35156,-7.47656 -1.70312,-14.85937 -5.6875,-19.21875zM0,16.03125c0.38672,3.75391 1.16797,6.78906 2.4375,9.71875h13.875c-3.66016,-5.5 -9.17578,-8.44922 -16.3125,-9.71875zM50,16.0625c-7.25391,1.10156 -12.85156,4.20313 -16.75,9.6875h14.125c1.32813,-2.89062 2.17188,-6.01953 2.625,-9.6875zM3.5,28.5625c0.37891,0.82422 1,1.85547 1.53125,2.59375l39.65625,-0.03125c0.57813,-0.80859 1.09766,-1.64062 1.5,-2.5625zM6.875,33.78125c0.82031,1.08594 1.50781,1.52734 2.53125,2.34375h30.71875c0.85938,-0.67187 1.76172,-1.46484 2.5625,-2.34375zM12.6875,38.28125c2.62109,1.62109 5.69531,2.68359 9.1875,3.40625l-0.40625,-3.40625zM22.3125,38.28125c0.67578,1.40625 1.54688,2.58594 2.53125,3.71875c0.96875,-1.15234 1.59766,-2.33203 2.28125,-3.71875zM28.15625,38.28125l-0.53125,3.21875c3.50781,-0.64453 6.59766,-1.66406 9.28125,-3.21875z"></path></g></g></svg>