<svg xmlns="http://www.w3.org/2000/svg" xmlns:xlink="http://www.w3.org/1999/xlink" viewBox="0,0,256,256" width="500px" height="500px" fill-rule="nonzero"><g fill="#555555" fill-rule="nonzero" stroke="none" stroke-width="1" stroke-linecap="butt" stroke-linejoin="miter" stroke-miterlimit="10" stroke-dasharray="" stroke-dashoffset="0" font-family="none" font-weight="none" font-size="none" text-anchor="none" style="mix-blend-mode: normal"><g transform="scale(5.12,5.12)"><path d="M25,1c-13.23437,0 -24,10.76563 -24,24c0,13.23438 10.76563,24 24,24c13.23438,0 24,-10.76562 24,-24c0,-13.23437 -10.76562,-24 -24,-24zM23.46875,3.71875l1.53125,4.4375l1.53125,-4.4375l2.09375,0.25l0.21875,6.3125l-1.625,-0.25l-0.15625,-4.21875l-1.46875,4.21875h-1.1875l-1.46875,-4.21875l-0.15625,4.21875l-1.625,0.25l0.21875,-6.3125zM38.78125,8.5625l1.1875,1.09375l-2.1875,2.875l3.5,-1.625l1.03125,1.28125l-2.34375,3.0625l3.28125,-1.5l0.8125,1.375l-5.6875,2.625l-0.8125,-1.375l2.78125,-3.65625l-4.1875,1.90625l-1.15625,-1.0625zM10.9375,9.3125c0.42578,-0.03125 0.84375,0.13281 1.15625,0.4375c0.20313,0.19922 0.37109,0.44141 0.4375,0.71875c0.07031,0.28516 0.01953,0.56641 -0.0625,0.84375c0.03906,-0.03125 0.08594,-0.06641 0.125,-0.09375c0.48828,-0.34766 1.13281,-0.44141 1.6875,-0.1875c0.55469,0.25391 0.91406,0.74609 1,1.34375c0.01953,0.22266 0.00391,0.46875 -0.0625,0.6875c-0.12891,0.42188 -0.41797,0.72656 -0.6875,1.0625c-0.52344,0.65234 -1.03906,1.31641 -1.5625,1.96875c-0.43359,0.54297 -0.87891,1.08203 -1.3125,1.625c-0.03125,0.03906 -0.0625,0.08594 -0.09375,0.125c-0.00781,0.00781 -0.02344,-0.02344 -0.03125,-0.03125c-0.16016,-0.12891 -0.33984,-0.27734 -0.5,-0.40625c-0.63672,-0.50781 -1.27344,-1.02344 -1.90625,-1.53125c-0.64062,-0.51172 -1.26562,-1.01953 -1.90625,-1.53125c-0.16797,-0.13672 -0.35937,-0.26953 -0.53125,-0.40625c-0.00391,-0.00391 -0.06641,-0.02734 -0.0625,-0.03125c0.02734,-0.03516 0.06641,-0.08984 0.09375,-0.125c0.4375,-0.54687 0.875,-1.07812 1.3125,-1.625c0.50781,-0.63672 1.02344,-1.26953 1.53125,-1.90625c0.09766,-0.12109 0.18359,-0.25391 0.28125,-0.375c0.17188,-0.21484 0.39844,-0.37109 0.65625,-0.46875c0.13672,-0.05078 0.29688,-0.08203 0.4375,-0.09375zM10.8125,10.90625c-0.07031,0.00391 -0.15234,0.00391 -0.21875,0.03125c-0.19922,0.08203 -0.30859,0.27734 -0.4375,0.4375c-0.49219,0.61328 -0.97656,1.23047 -1.46875,1.84375c-0.00781,0.00781 -0.12891,0.12109 -0.125,0.125c0.10156,0.08203 0.21094,0.16797 0.3125,0.25c0.26563,0.21094 0.51563,0.41406 0.78125,0.625c0.25781,-0.32422 0.51953,-0.64453 0.78125,-0.96875c0.25781,-0.32422 0.52344,-0.64453 0.78125,-0.96875c0.12891,-0.16016 0.28516,-0.29687 0.34375,-0.5c0.05078,-0.23047 0.00391,-0.48047 -0.15625,-0.65625c-0.14844,-0.16406 -0.37891,-0.23437 -0.59375,-0.21875zM25,12c7.17969,0 13,5.82031 13,13c0,7.17969 -5.82031,13 -13,13c-7.17969,0 -13,-5.82031 -13,-13c0,-7.17969 5.82031,-13 13,-13zM13,12.3125c-0.24219,0.00781 -0.41797,0.13281 -0.5625,0.3125c-0.20312,0.25391 -0.42187,0.52734 -0.625,0.78125c-0.41406,0.51953 -0.80469,1.01172 -1.21875,1.53125c0.21484,0.17188 0.41016,0.35938 0.625,0.53125c0.125,0.10156 0.25,0.21094 0.375,0.3125c0.02344,0.01953 0.07031,0.01172 0.09375,0.03125c0.45703,-0.57422 0.91797,-1.14453 1.375,-1.71875c0.16406,-0.20703 0.33203,-0.41406 0.5,-0.625c0.16797,-0.21094 0.19922,-0.5 0.09375,-0.75c-0.12109,-0.25781 -0.36719,-0.41406 -0.65625,-0.40625zM25,14c-6.06641,0 -11,4.93359 -11,11h11zM25,25v11c6.06641,0 11,-4.93359 11,-11z"></path></g></g></svg>